<mxfile host="app.diagrams.net" agent="Mozilla/5.0 (Windows NT 10.0; Win64; x64) AppleWebKit/537.36 (KHTML, like Gecko) Chrome/136.0.0.0 Safari/537.36" version="27.0.5">
  <diagram name="Page-1" id="B0kxBOBbhyXls_NDOXz8">
    <mxGraphModel dx="2728" dy="2680" grid="1" gridSize="10" guides="1" tooltips="1" connect="1" arrows="1" fold="1" page="1" pageScale="1" pageWidth="850" pageHeight="1100" math="0" shadow="0">
      <root>
        <mxCell id="0" />
        <mxCell id="1" parent="0" />
        <mxCell id="SMCto93QrR42tcmkpxwM-3" value="Manager" style="shape=umlActor;verticalLabelPosition=bottom;verticalAlign=top;html=1;" parent="1" vertex="1">
          <mxGeometry x="40" y="-81" width="30" height="60" as="geometry" />
        </mxCell>
        <mxCell id="SMCto93QrR42tcmkpxwM-6" value="Tenant&lt;div&gt;&lt;br&gt;&lt;/div&gt;" style="shape=umlActor;verticalLabelPosition=bottom;verticalAlign=top;html=1;" parent="1" vertex="1">
          <mxGeometry x="40" y="310" width="30" height="60" as="geometry" />
        </mxCell>
        <mxCell id="SMCto93QrR42tcmkpxwM-7" value="&lt;div&gt;&lt;br&gt;&lt;/div&gt;&lt;div&gt;&lt;br&gt;&lt;/div&gt;" style="shape=umlBoundary;whiteSpace=wrap;html=1;" parent="1" vertex="1">
          <mxGeometry x="190" y="-90" width="70" height="60" as="geometry" />
        </mxCell>
        <mxCell id="SMCto93QrR42tcmkpxwM-12" value="&lt;div&gt;&lt;br&gt;&lt;/div&gt;&lt;div&gt;&lt;br&gt;&lt;/div&gt;" style="shape=umlBoundary;whiteSpace=wrap;html=1;" parent="1" vertex="1">
          <mxGeometry x="200" y="320" width="70" height="60" as="geometry" />
        </mxCell>
        <mxCell id="SMCto93QrR42tcmkpxwM-13" value="Manager Poll Screen" style="text;html=1;align=center;verticalAlign=middle;resizable=0;points=[];autosize=1;strokeColor=none;fillColor=none;" parent="1" vertex="1">
          <mxGeometry x="155" y="-120" width="140" height="30" as="geometry" />
        </mxCell>
        <mxCell id="SMCto93QrR42tcmkpxwM-15" value="" style="endArrow=none;html=1;rounded=0;exitX=1;exitY=0.3333333333333333;exitDx=0;exitDy=0;exitPerimeter=0;" parent="1" source="SMCto93QrR42tcmkpxwM-3" edge="1">
          <mxGeometry width="50" height="50" relative="1" as="geometry">
            <mxPoint x="140" y="430" as="sourcePoint" />
            <mxPoint x="190" y="-60" as="targetPoint" />
          </mxGeometry>
        </mxCell>
        <mxCell id="SMCto93QrR42tcmkpxwM-16" value="" style="endArrow=none;html=1;rounded=0;entryX=0.952;entryY=0.761;entryDx=0;entryDy=0;entryPerimeter=0;exitX=0.009;exitY=0.466;exitDx=0;exitDy=0;exitPerimeter=0;" parent="1" source="SMCto93QrR42tcmkpxwM-26" target="SMCto93QrR42tcmkpxwM-27" edge="1">
          <mxGeometry width="50" height="50" relative="1" as="geometry">
            <mxPoint x="230" y="600" as="sourcePoint" />
            <mxPoint x="330" y="520" as="targetPoint" />
          </mxGeometry>
        </mxCell>
        <mxCell id="SMCto93QrR42tcmkpxwM-17" value="" style="endArrow=none;html=1;rounded=0;exitX=1.004;exitY=0.497;exitDx=0;exitDy=0;exitPerimeter=0;entryX=-0.004;entryY=0.511;entryDx=0;entryDy=0;entryPerimeter=0;" parent="1" source="SMCto93QrR42tcmkpxwM-7" target="SMCto93QrR42tcmkpxwM-43" edge="1">
          <mxGeometry width="50" height="50" relative="1" as="geometry">
            <mxPoint x="80" y="480" as="sourcePoint" />
            <mxPoint x="340" y="182" as="targetPoint" />
          </mxGeometry>
        </mxCell>
        <mxCell id="SMCto93QrR42tcmkpxwM-18" value="" style="endArrow=none;html=1;rounded=0;exitX=0;exitY=0.5;exitDx=0;exitDy=0;entryX=0.997;entryY=0.516;entryDx=0;entryDy=0;entryPerimeter=0;" parent="1" source="h5k5_I4k9YKbgE68peC5-1" target="SMCto93QrR42tcmkpxwM-24" edge="1">
          <mxGeometry width="50" height="50" relative="1" as="geometry">
            <mxPoint x="532.5" y="410" as="sourcePoint" />
            <mxPoint x="530" y="220" as="targetPoint" />
          </mxGeometry>
        </mxCell>
        <mxCell id="SMCto93QrR42tcmkpxwM-21" value="" style="endArrow=none;html=1;rounded=0;exitX=-0.002;exitY=0.493;exitDx=0;exitDy=0;exitPerimeter=0;entryX=0.988;entryY=0.621;entryDx=0;entryDy=0;entryPerimeter=0;" parent="1" source="SMCto93QrR42tcmkpxwM-27" target="SMCto93QrR42tcmkpxwM-12" edge="1">
          <mxGeometry width="50" height="50" relative="1" as="geometry">
            <mxPoint x="300" y="620" as="sourcePoint" />
            <mxPoint x="280" y="358" as="targetPoint" />
          </mxGeometry>
        </mxCell>
        <mxCell id="SMCto93QrR42tcmkpxwM-22" value="" style="endArrow=none;html=1;rounded=0;exitX=-0.005;exitY=0.512;exitDx=0;exitDy=0;exitPerimeter=0;entryX=1;entryY=0.3333333333333333;entryDx=0;entryDy=0;entryPerimeter=0;" parent="1" source="SMCto93QrR42tcmkpxwM-12" target="SMCto93QrR42tcmkpxwM-6" edge="1">
          <mxGeometry width="50" height="50" relative="1" as="geometry">
            <mxPoint x="310" y="630" as="sourcePoint" />
            <mxPoint x="980" y="340" as="targetPoint" />
          </mxGeometry>
        </mxCell>
        <mxCell id="SMCto93QrR42tcmkpxwM-23" value="Fill Vote Form" style="text;html=1;align=center;verticalAlign=middle;resizable=0;points=[];autosize=1;strokeColor=none;fillColor=none;rotation=0;" parent="1" vertex="1">
          <mxGeometry x="80" y="-90" width="100" height="30" as="geometry" />
        </mxCell>
        <mxCell id="SMCto93QrR42tcmkpxwM-24" value="Update" style="ellipse;shape=umlControl;whiteSpace=wrap;html=1;" parent="1" vertex="1">
          <mxGeometry x="527.5" y="-100" width="70" height="80" as="geometry" />
        </mxCell>
        <mxCell id="SMCto93QrR42tcmkpxwM-26" value="Calculate" style="ellipse;shape=umlControl;whiteSpace=wrap;html=1;" parent="1" vertex="1">
          <mxGeometry x="480" y="390" width="70" height="80" as="geometry" />
        </mxCell>
        <mxCell id="SMCto93QrR42tcmkpxwM-27" value="Update" style="ellipse;shape=umlControl;whiteSpace=wrap;html=1;" parent="1" vertex="1">
          <mxGeometry x="375" y="350" width="70" height="80" as="geometry" />
        </mxCell>
        <mxCell id="SMCto93QrR42tcmkpxwM-31" value="Tenant Poll Screen" style="text;html=1;align=center;verticalAlign=middle;resizable=0;points=[];autosize=1;strokeColor=none;fillColor=none;rotation=0;" parent="1" vertex="1">
          <mxGeometry x="190" y="290" width="120" height="30" as="geometry" />
        </mxCell>
        <mxCell id="SMCto93QrR42tcmkpxwM-34" value="Choose the Option" style="text;html=1;align=center;verticalAlign=middle;resizable=0;points=[];autosize=1;strokeColor=none;fillColor=none;rotation=8;" parent="1" vertex="1">
          <mxGeometry x="75" y="335" width="120" height="30" as="geometry" />
        </mxCell>
        <mxCell id="SMCto93QrR42tcmkpxwM-41" value="&lt;div&gt;Display Results&lt;/div&gt;" style="ellipse;shape=umlControl;whiteSpace=wrap;html=1;" parent="1" vertex="1">
          <mxGeometry x="200" y="510" width="80" height="100" as="geometry" />
        </mxCell>
        <mxCell id="SMCto93QrR42tcmkpxwM-43" value="Check&lt;div&gt;Data&lt;/div&gt;" style="ellipse;shape=umlControl;whiteSpace=wrap;html=1;" parent="1" vertex="1">
          <mxGeometry x="355" y="-101" width="70" height="80" as="geometry" />
        </mxCell>
        <mxCell id="SMCto93QrR42tcmkpxwM-45" value="" style="endArrow=none;html=1;rounded=0;entryX=0.008;entryY=0.491;entryDx=0;entryDy=0;entryPerimeter=0;exitX=1;exitY=0.515;exitDx=0;exitDy=0;exitPerimeter=0;" parent="1" source="SMCto93QrR42tcmkpxwM-43" target="SMCto93QrR42tcmkpxwM-24" edge="1">
          <mxGeometry width="50" height="50" relative="1" as="geometry">
            <mxPoint x="430" y="-60" as="sourcePoint" />
            <mxPoint x="538" y="179.41" as="targetPoint" />
          </mxGeometry>
        </mxCell>
        <mxCell id="SMCto93QrR42tcmkpxwM-47" value="Right" style="text;html=1;align=center;verticalAlign=middle;resizable=0;points=[];autosize=1;strokeColor=none;fillColor=none;rotation=0;" parent="1" vertex="1">
          <mxGeometry x="445" y="-90" width="50" height="30" as="geometry" />
        </mxCell>
        <mxCell id="SMCto93QrR42tcmkpxwM-54" value="" style="endArrow=none;html=1;rounded=0;entryX=0.496;entryY=0.119;entryDx=0;entryDy=0;entryPerimeter=0;exitX=0.531;exitY=0.998;exitDx=0;exitDy=0;exitPerimeter=0;strokeColor=light-dark(#000000,#FF0C0C);" parent="1" source="SMCto93QrR42tcmkpxwM-55" target="SMCto93QrR42tcmkpxwM-43" edge="1">
          <mxGeometry width="50" height="50" relative="1" as="geometry">
            <mxPoint x="390" y="-229" as="sourcePoint" />
            <mxPoint x="393" y="-117" as="targetPoint" />
          </mxGeometry>
        </mxCell>
        <mxCell id="SMCto93QrR42tcmkpxwM-55" value="Display error Message" style="ellipse;shape=umlControl;whiteSpace=wrap;html=1;strokeColor=light-dark(#000000,#FF0C0C);" parent="1" vertex="1">
          <mxGeometry x="350" y="-250" width="75" height="81" as="geometry" />
        </mxCell>
        <mxCell id="SMCto93QrR42tcmkpxwM-56" value="Wrong" style="text;html=1;align=center;verticalAlign=middle;resizable=0;points=[];autosize=1;strokeColor=light-dark(#000000,#FF0C0C);fillColor=none;" parent="1" vertex="1">
          <mxGeometry x="385" y="-150" width="60" height="30" as="geometry" />
        </mxCell>
        <mxCell id="SMCto93QrR42tcmkpxwM-57" value="Create Notification" style="ellipse;shape=umlControl;whiteSpace=wrap;html=1;" parent="1" vertex="1">
          <mxGeometry x="445" y="-10" width="70" height="80" as="geometry" />
        </mxCell>
        <mxCell id="SMCto93QrR42tcmkpxwM-58" value="" style="endArrow=none;html=1;rounded=0;entryX=0.71;entryY=0.165;entryDx=0;entryDy=0;exitX=0.236;exitY=0.938;exitDx=0;exitDy=0;exitPerimeter=0;entryPerimeter=0;" parent="1" source="SMCto93QrR42tcmkpxwM-24" target="SMCto93QrR42tcmkpxwM-57" edge="1">
          <mxGeometry width="50" height="50" relative="1" as="geometry">
            <mxPoint x="500" y="-388" as="sourcePoint" />
            <mxPoint x="757" y="-329" as="targetPoint" />
          </mxGeometry>
        </mxCell>
        <mxCell id="SMCto93QrR42tcmkpxwM-59" value="" style="endArrow=none;html=1;rounded=0;exitX=0.075;exitY=0.825;exitDx=0;exitDy=0;exitPerimeter=0;entryX=0.859;entryY=0.258;entryDx=0;entryDy=0;entryPerimeter=0;" parent="1" source="SMCto93QrR42tcmkpxwM-57" target="odEwd0N2Ew96k6kY06_a-2" edge="1">
          <mxGeometry width="50" height="50" relative="1" as="geometry">
            <mxPoint x="800" y="-208" as="sourcePoint" />
            <mxPoint x="650" y="-212" as="targetPoint" />
          </mxGeometry>
        </mxCell>
        <mxCell id="SMCto93QrR42tcmkpxwM-60" value="" style="shape=umlBoundary;whiteSpace=wrap;html=1;" parent="1" vertex="1">
          <mxGeometry x="200" y="160" width="100" height="80" as="geometry" />
        </mxCell>
        <mxCell id="SMCto93QrR42tcmkpxwM-61" value="Tenant Notification Screen" style="text;html=1;align=center;verticalAlign=middle;resizable=0;points=[];autosize=1;strokeColor=none;fillColor=none;" parent="1" vertex="1">
          <mxGeometry x="180" y="130" width="160" height="30" as="geometry" />
        </mxCell>
        <mxCell id="SMCto93QrR42tcmkpxwM-62" value="" style="endArrow=none;html=1;rounded=0;entryX=1;entryY=0.3333333333333333;entryDx=0;entryDy=0;exitX=-0.005;exitY=0.516;exitDx=0;exitDy=0;exitPerimeter=0;entryPerimeter=0;" parent="1" source="SMCto93QrR42tcmkpxwM-60" target="SMCto93QrR42tcmkpxwM-6" edge="1">
          <mxGeometry width="50" height="50" relative="1" as="geometry">
            <mxPoint x="970" y="-20" as="sourcePoint" />
            <mxPoint x="1227" y="39" as="targetPoint" />
          </mxGeometry>
        </mxCell>
        <mxCell id="odEwd0N2Ew96k6kY06_a-2" value="Display" style="ellipse;shape=umlControl;whiteSpace=wrap;html=1;" parent="1" vertex="1">
          <mxGeometry x="355" y="70" width="70" height="80" as="geometry" />
        </mxCell>
        <mxCell id="odEwd0N2Ew96k6kY06_a-3" value="" style="endArrow=none;html=1;rounded=0;exitX=0.142;exitY=0.88;exitDx=0;exitDy=0;exitPerimeter=0;entryX=0.97;entryY=0.326;entryDx=0;entryDy=0;entryPerimeter=0;" parent="1" source="odEwd0N2Ew96k6kY06_a-2" target="SMCto93QrR42tcmkpxwM-60" edge="1">
          <mxGeometry width="50" height="50" relative="1" as="geometry">
            <mxPoint x="571" y="46" as="sourcePoint" />
            <mxPoint x="630" y="40" as="targetPoint" />
          </mxGeometry>
        </mxCell>
        <mxCell id="h5k5_I4k9YKbgE68peC5-1" value="Poll list" style="ellipse;shape=umlEntity;whiteSpace=wrap;html=1;" parent="1" vertex="1">
          <mxGeometry x="690" y="-100" width="80" height="80" as="geometry" />
        </mxCell>
        <mxCell id="h5k5_I4k9YKbgE68peC5-2" value="Select the Notification" style="text;html=1;align=center;verticalAlign=middle;resizable=0;points=[];autosize=1;strokeColor=none;fillColor=none;rotation=313;" parent="1" vertex="1">
          <mxGeometry x="55" y="240" width="140" height="30" as="geometry" />
        </mxCell>
        <mxCell id="h5k5_I4k9YKbgE68peC5-4" value="Display" style="ellipse;shape=umlControl;whiteSpace=wrap;html=1;" parent="1" vertex="1">
          <mxGeometry x="457.5" y="250" width="70" height="80" as="geometry" />
        </mxCell>
        <mxCell id="h5k5_I4k9YKbgE68peC5-5" value="" style="endArrow=none;html=1;rounded=0;exitX=0.975;exitY=0.333;exitDx=0;exitDy=0;exitPerimeter=0;entryX=0.046;entryY=0.703;entryDx=0;entryDy=0;entryPerimeter=0;" parent="1" source="SMCto93QrR42tcmkpxwM-12" target="h5k5_I4k9YKbgE68peC5-4" edge="1">
          <mxGeometry width="50" height="50" relative="1" as="geometry">
            <mxPoint x="571" y="46" as="sourcePoint" />
            <mxPoint x="630" y="46" as="targetPoint" />
          </mxGeometry>
        </mxCell>
        <mxCell id="h5k5_I4k9YKbgE68peC5-6" value="" style="endArrow=none;html=1;rounded=0;exitX=1;exitY=0.5;exitDx=0;exitDy=0;exitPerimeter=0;entryX=0.003;entryY=0.519;entryDx=0;entryDy=0;entryPerimeter=0;" parent="1" source="SMCto93QrR42tcmkpxwM-60" target="h5k5_I4k9YKbgE68peC5-7" edge="1">
          <mxGeometry width="50" height="50" relative="1" as="geometry">
            <mxPoint x="581" y="56" as="sourcePoint" />
            <mxPoint x="640" y="56" as="targetPoint" />
          </mxGeometry>
        </mxCell>
        <mxCell id="h5k5_I4k9YKbgE68peC5-7" value="Load" style="ellipse;shape=umlControl;whiteSpace=wrap;html=1;" parent="1" vertex="1">
          <mxGeometry x="695" y="160" width="70" height="80" as="geometry" />
        </mxCell>
        <mxCell id="h5k5_I4k9YKbgE68peC5-8" value="" style="endArrow=none;html=1;rounded=0;exitX=0.5;exitY=1;exitDx=0;exitDy=0;entryX=0.494;entryY=0.121;entryDx=0;entryDy=0;entryPerimeter=0;" parent="1" source="h5k5_I4k9YKbgE68peC5-1" target="h5k5_I4k9YKbgE68peC5-7" edge="1">
          <mxGeometry width="50" height="50" relative="1" as="geometry">
            <mxPoint x="556.3" y="413.0799999999999" as="sourcePoint" />
            <mxPoint x="728" y="170" as="targetPoint" />
          </mxGeometry>
        </mxCell>
        <mxCell id="h5k5_I4k9YKbgE68peC5-9" value="" style="endArrow=none;html=1;rounded=0;exitX=0.041;exitY=0.764;exitDx=0;exitDy=0;exitPerimeter=0;entryX=0.998;entryY=0.508;entryDx=0;entryDy=0;entryPerimeter=0;" parent="1" source="h5k5_I4k9YKbgE68peC5-7" target="h5k5_I4k9YKbgE68peC5-4" edge="1">
          <mxGeometry width="50" height="50" relative="1" as="geometry">
            <mxPoint x="571" y="46" as="sourcePoint" />
            <mxPoint x="630" y="46" as="targetPoint" />
          </mxGeometry>
        </mxCell>
        <mxCell id="h5k5_I4k9YKbgE68peC5-10" value="" style="endArrow=none;html=1;rounded=0;exitX=0.565;exitY=1.005;exitDx=0;exitDy=0;exitPerimeter=0;entryX=1.025;entryY=0.525;entryDx=0;entryDy=0;entryPerimeter=0;" parent="1" source="SMCto93QrR42tcmkpxwM-26" target="SMCto93QrR42tcmkpxwM-41" edge="1">
          <mxGeometry width="50" height="50" relative="1" as="geometry">
            <mxPoint x="613" y="455" as="sourcePoint" />
            <mxPoint x="700" y="480" as="targetPoint" />
            <Array as="points">
              <mxPoint x="520" y="560" />
            </Array>
          </mxGeometry>
        </mxCell>
        <mxCell id="h5k5_I4k9YKbgE68peC5-12" value="" style="endArrow=none;html=1;rounded=0;entryX=0.582;entryY=1.005;entryDx=0;entryDy=0;entryPerimeter=0;exitX=0.502;exitY=0.125;exitDx=0;exitDy=0;exitPerimeter=0;" parent="1" source="SMCto93QrR42tcmkpxwM-41" target="SMCto93QrR42tcmkpxwM-12" edge="1">
          <mxGeometry width="50" height="50" relative="1" as="geometry">
            <mxPoint x="849" y="520" as="sourcePoint" />
            <mxPoint x="810" y="472" as="targetPoint" />
          </mxGeometry>
        </mxCell>
        <mxCell id="h5k5_I4k9YKbgE68peC5-14" value="" style="endArrow=none;html=1;rounded=0;entryX=0.99;entryY=0.659;entryDx=0;entryDy=0;entryPerimeter=0;exitX=1;exitY=0.5;exitDx=0;exitDy=0;" parent="1" source="h5k5_I4k9YKbgE68peC5-1" target="SMCto93QrR42tcmkpxwM-26" edge="1">
          <mxGeometry width="50" height="50" relative="1" as="geometry">
            <mxPoint x="920" y="-80" as="sourcePoint" />
            <mxPoint x="807" y="215" as="targetPoint" />
            <Array as="points">
              <mxPoint x="800" y="-60" />
              <mxPoint x="800" y="442" />
            </Array>
          </mxGeometry>
        </mxCell>
        <mxCell id="hNEVhZZzgvT8eKCTErc1-1" value="Notification&amp;nbsp;&lt;div&gt;List&lt;/div&gt;" style="ellipse;shape=umlEntity;whiteSpace=wrap;html=1;" parent="1" vertex="1">
          <mxGeometry x="640" y="95" width="65" height="70" as="geometry" />
        </mxCell>
        <mxCell id="hNEVhZZzgvT8eKCTErc1-2" value="" style="endArrow=none;html=1;rounded=0;entryX=0.779;entryY=0.931;entryDx=0;entryDy=0;entryPerimeter=0;exitX=0.27;exitY=0.176;exitDx=0;exitDy=0;exitPerimeter=0;" parent="1" source="hNEVhZZzgvT8eKCTErc1-3" target="SMCto93QrR42tcmkpxwM-57" edge="1">
          <mxGeometry width="50" height="50" relative="1" as="geometry">
            <mxPoint x="550" y="100" as="sourcePoint" />
            <mxPoint x="430" y="106" as="targetPoint" />
          </mxGeometry>
        </mxCell>
        <mxCell id="hNEVhZZzgvT8eKCTErc1-3" value="Load" style="ellipse;shape=umlControl;whiteSpace=wrap;html=1;" parent="1" vertex="1">
          <mxGeometry x="515" y="100" width="55" height="60" as="geometry" />
        </mxCell>
        <mxCell id="hNEVhZZzgvT8eKCTErc1-4" value="" style="endArrow=none;html=1;rounded=0;entryX=0;entryY=0.5;entryDx=0;entryDy=0;" parent="1" target="hNEVhZZzgvT8eKCTErc1-1" edge="1">
          <mxGeometry width="50" height="50" relative="1" as="geometry">
            <mxPoint x="570" y="132" as="sourcePoint" />
            <mxPoint x="510" y="76" as="targetPoint" />
          </mxGeometry>
        </mxCell>
      </root>
    </mxGraphModel>
  </diagram>
</mxfile>
